<?xml version="1.0" encoding="UTF-8"?><svg id="a" xmlns="http://www.w3.org/2000/svg" viewBox="0 0 746.85 702" fill="white"><path d="M125.19,695.57c-12.66-2.54-21.85-10.48-28.51-21.13-14.4-23.03-32.1-42.07-33.58-68.58-.05,0-.1,0-.15,.01-.82,26.83-13.1,44.48-27.75,67.81-6.7,10.67-15.85,18.31-28.17,21.82-6.34,1.81-6.33,1.85-4.7,8.52h127.69c1.61-4.95,.56-7.37-4.83-8.45Z"/><path d="M294.08,351.31c-25.78-63.84-51.66-127.63-77.38-191.49-20.38-50.59-40.61-101.23-60.81-151.88-1.31-3.29-2.73-5.01-6.74-4.99-45.15,.2-90.3,.18-135.45,.22-3.29,0-6.57,0-10.15,0v7.82c18.98,2.51,30.49,14.53,38.79,30.48,3.22,6.2,6.47,12.42,9.08,18.88,1.46,3.62,2.96,7.34,4.02,11.11h0c.48,.99,20.67,48.64,21.08,49.67,12.86,32.13,25.69,64.27,38.54,96.4,21.26,53.13,42.55,106.25,63.81,159.38,24.77,61.9,49.44,123.84,74.29,185.71,18.36,45.7,36.96,91.31,55.39,136.98,1.22,3.02,2.46,4.83,6.37,4.79,3.84-.03,4.69-2.03,5.76-4.8,16.52-42.49,33.03-84.98,49.68-127.42,2.17-5.54,4.36-11.08,6.54-16.62-2.87-6.67-10.2-24.3-10.54-25.14-24.1-59.7-48.18-119.41-72.29-179.1Z"/><path d="M721.49,695.64c-13.01-2.23-23.21-9.49-29.68-20.89-5.23-9.22-10.05-18.85-13.57-28.82-8.93-25.31-10.31-51.78-10.31-78.37,0-122.32-.1-244.64,0-366.97,.03-29.81,.04-59.65,1.27-89.43,.92-22.2,5.58-43.94,14.94-64.32,5.37-11.69,11.23-23.35,23.32-29.66,5.65-2.95,11.94-4.69,17.98-7V3.66c-.84-.18-1.31-.38-1.79-.38-43.99-.03-87.98-.09-131.97,.09-1.69,0-4.18,1.95-4.91,3.6-3.77,8.52-7.23,17.18-10.53,25.89-6.2,16.35-12.6,32.6-21.25,47.72v.07l.02-.06c.2,1.77-.21,32.39-.21,34.16,.06,65.99,.1,131.98,.1,197.97,0,91.32,.09,182.65-.11,273.97-.05,24.36-4.27,48.09-14.24,70.49-5.5,12.37-11.47,24.75-23.72,32-6.03,3.57-12.86,5.78-19.53,8.7v6.1h229.09c1.2-4.72,.77-7.36-4.91-8.33Z"/></svg>