<?xml version="1.0" encoding="UTF-8"?><svg id="a" xmlns="http://www.w3.org/2000/svg" viewBox="0 0 2716.85 1186.81"><path d="M152.19,826.67c-12.66-2.54-21.85-10.48-28.51-21.13-14.4-23.03-32.1-42.07-33.58-68.58-.05,0-.1,0-.15,.01-.82,26.83-13.1,44.48-27.75,67.81-6.7,10.67-15.85,18.31-28.17,21.82-6.34,1.81-6.33,1.85-4.7,8.52h127.69c1.61-4.95,.56-7.37-4.83-8.45Z"/><path d="M321.08,482.4c-25.78-63.84-51.66-127.63-77.38-191.49-20.38-50.59-40.61-101.23-60.81-151.88-1.31-3.29-2.73-5.01-6.74-4.99-45.15,.2-90.3,.18-135.45,.22-3.29,0-6.57,0-10.15,0v7.82c18.98,2.51,30.49,14.53,38.79,30.48,3.22,6.2,6.47,12.42,9.08,18.88,1.46,3.62,2.96,7.34,4.02,11.11h0c.48,.99,20.67,48.64,21.08,49.67,12.86,32.13,25.69,64.27,38.54,96.4,21.26,53.13,42.55,106.25,63.81,159.38,24.77,61.9,49.44,123.84,74.29,185.71,18.36,45.7,36.96,91.31,55.39,136.98,1.22,3.02,2.46,4.83,6.37,4.79,3.84-.03,4.69-2.03,5.76-4.8,16.52-42.49,33.03-84.98,49.68-127.42,2.17-5.54,4.36-11.08,6.54-16.62-2.87-6.67-10.2-24.3-10.54-25.14-24.1-59.7-48.18-119.41-72.29-179.1Z"/><path d="M748.49,826.74c-13.01-2.23-23.21-9.49-29.68-20.89-5.23-9.22-10.05-18.85-13.57-28.82-8.93-25.31-10.31-51.78-10.31-78.37,0-122.32-.1-244.64,0-366.97,.03-29.81,.04-59.65,1.27-89.43,.92-22.2,5.58-43.94,14.94-64.32,5.37-11.69,11.23-23.35,23.32-29.66,5.65-2.95,11.94-4.69,17.98-7v-6.53c-.84-.18-1.31-.38-1.79-.38-43.99-.03-87.98-.09-131.97,.09-1.69,0-4.18,1.95-4.91,3.6-3.77,8.52-7.23,17.18-10.53,25.89-6.2,16.35-12.6,32.6-21.25,47.72v.07l.02-.06c.2,1.77-.21,32.39-.21,34.16,.06,65.99,.1,131.98,.1,197.97,0,91.32,.09,182.65-.11,273.97-.05,24.36-4.27,48.09-14.24,70.49-5.5,12.37-11.47,24.75-23.72,32-6.03,3.57-12.86,5.78-19.53,8.7v6.1h229.09c1.2-4.72,.77-7.36-4.91-8.33Z"/><path d="M621.68,1005.54v-19.08h218.8V112.6h22.28V986.23h689.75v18.86H863.16v156.62h-22.32v-156.17h-219.16Z"/><path d="M1158.67,529.46c3.57-8.04,6.65-14.8,9.6-21.61,20.73-47.78,41.44-95.56,62.13-143.35,5.89-13.59,11.76-27.19,17.45-40.87,1.18-2.84,2.59-4.21,5.81-4.2,20.16,.08,40.32-.02,60.48-.03,5.08,0,9.29,1.79,11.13,6.82,1.81,4.95,2.03,10.29-2.31,13.87-2.57,2.12-6.47,3.24-9.89,3.56-5.92,.56-11.93,.16-18.33,.16v290.38c7.52,0,14.81-.13,22.09,.03,8.32,.19,12.96,4.84,12.91,12.6-.05,7.71-3.98,11.71-12.22,11.88-9.66,.19-19.32,.06-28.98,.06-20.48,0-40.96,0-61.44,0-1.66,0-3.33,0-4.99-.12-7.92-.54-11.91-4.79-11.83-12.51,.08-7.01,4.65-11.74,12.05-11.87,10.49-.19,20.99-.02,31.49-.02,4.98,0,9.97,0,15.45,0V345.29c-3.52-1.09-5.26,.32-6.72,3.7-21.82,50.52-43.75,100.99-65.72,151.45-7.77,17.84-15.78,35.56-23.49,53.42-1.34,3.1-3.02,4.29-6.38,4.13-5.82-.27-11.68,.2-17.47-.29-1.97-.17-4.73-1.9-5.51-3.63-25.83-57.69-51.48-115.45-77.11-173.23-4.79-10.8-9.31-21.72-14.18-32.48-.74-1.63-2.7-2.7-4.1-4.03-.46,.33-.91,.67-1.37,1v288.52c1.61,.11,3.02,.28,4.44,.29,14,.03,27.99-.07,41.99,.07,7.87,.08,12.23,4.06,12.76,11.14,.63,8.42-3.79,13.15-12.93,13.38-8.15,.2-16.32,.03-24.48,.03-22.98,0-45.96,.07-68.93-.04-8.73-.04-12.76-4.18-12.75-12.45,.01-7.47,4.6-11.77,12.9-12.05,2.16-.07,4.33-.03,6.5-.04,5-.04,9.99-.07,14.99-.13,.3,0,.61-.22,1.2-.45V344.14c-3.91,0-7.66,.02-11.4,0-3-.02-6.02,.16-8.99-.19-7.66-.89-11.63-5.64-11.32-13.18,.29-7.09,4.7-11.25,12.49-11.34,11.66-.13,23.33-.05,34.99-.06,7.67,0,15.33,.11,22.99-.1,3.4-.1,5.28,.77,6.75,4.19,16.9,39.06,33.97,78.05,51.08,117.02,12.03,27.41,24.21,54.77,36.31,82.15,.79,1.79,1.49,3.61,2.82,6.83Z"/><path d="M2220.67,344.08c-11.88,0-23.18,.12-34.46-.04-9.05-.13-14.06-6.69-12.1-15.41,1.21-5.4,5.46-9.22,11.55-9.25,26.49-.12,52.99-.14,79.48,.12,7.42,.07,11.77,5.38,11.67,12.86-.09,6.86-4.4,11.31-11.74,11.6-6.28,.24-12.58,.05-19.21,.05v289.88c1.74,.08,3.5,.22,5.27,.23,8.33,.03,16.67-.12,25,.06,7.33,.16,11.99,4.89,12.13,11.88,.15,7.44-3.65,12.11-11.35,12.31-16.62,.43-33.25,.32-49.87,.37-12.32,.04-24.63-.02-36.95-.06-1.66,0-3.34,.03-4.98-.18-7.45-.94-11.54-5.57-11.3-12.71,.24-7.12,4.63-11.44,12.33-11.59,9.33-.18,18.66-.05,27.99-.05,1.96,0,3.92,0,6.29,0v-201.23c-1.12,.92-2.02,1.53-2.76,2.29-47.76,48.82-95.33,97.82-143.43,146.3-7.97,8.04-12.42,15.87-11.09,27.36,.95,8.17,.18,16.53,.18,25.28,12.31,0,23.93-.07,35.56,.03,7.25,.06,11.79,4.26,12.34,11.07,.62,7.69-3.8,13.22-11.47,13.28-30.11,.22-60.23,.27-90.34,.14-8.37-.04-12.87-4.98-12.77-12.81,.09-7.34,4.8-11.58,13.21-11.66,9.46-.09,18.93-.02,28.76-.02V343.99c-6.09,0-11.89,.22-17.66-.05-8.26-.39-12.8-4.95-12.75-12.28,.06-7.81,4.3-12.15,12.6-12.25,14.5-.17,28.99-.06,43.49-.07,11.33,0,22.66-.07,33.99,.04,5.34,.05,9.99,1.78,11.87,7.34,1.67,4.94,2.13,10.24-2.44,13.79-2.54,1.97-6.23,3.28-9.46,3.39-11.45,.4-22.93,.16-34.7,.16v216.37c2.83-2.63,5.11-4.59,7.2-6.73,31.46-32.14,62.89-64.32,94.36-96.45,17.13-17.49,34.27-34.98,51.58-52.29,3.24-3.25,4.18-6.58,4.1-11.07-.29-16.3-.12-32.61-.12-49.8Z"/><path d="M2438.41,632.8c11.31,0,22.63-.14,33.94,.04,10.4,.17,15.46,7.39,12.33,17.14-1.59,4.97-5.9,7.48-13.3,7.49-16.99,.03-33.99-.01-50.98-.04-8.33-.01-16.67,.17-24.99-.15-7.53-.29-11.35-4.41-11.6-11.65-.26-7.48,4.02-12.36,11.62-12.72,5.79-.27,11.6-.05,17.43-.05V343.64h-71.78c-.08,1.82-.22,3.57-.23,5.32-.01,14.16,.05,28.32-.02,42.49-.04,7.89-3.94,11.86-11.47,11.97-7.92,.12-12.71-3.79-12.78-11.46-.21-24.14-.08-48.29-.08-72.87h217.1c.1,1.85,.26,3.47,.26,5.09,.02,21.66,.05,43.32,0,64.98-.03,10.01-5.51,15.07-14.56,13.67-6.6-1.02-9.85-5.27-9.89-13.38-.07-13.16,.01-26.33,.03-39.49,0-1.97,0-3.95,0-6.3h-71.39v133.47c.48-.02,1.08,.13,1.4-.1,23.92-17,51.19-21.36,79.67-21.08,19.79,.2,39.07,3.17,57.49,10.84,25.41,10.58,40.01,29.82,42.7,56.8,1.86,18.65,1.04,37.57,1.21,56.37,.15,15.83,0,31.66-.01,47.49,0,1.46,0,2.93,0,5.23,6.69,0,12.97-.24,19.22,.06,7.47,.36,11.67,4.59,11.98,11.44,.38,8.13-3.45,12.95-11.59,13.04-26.49,.29-52.98,.35-79.47,.19-8.06-.05-11.91-4.72-11.87-12.94,.04-7.24,4.19-11.42,12-11.7,5.82-.21,11.66-.05,17.49-.05,5.64,0,11.28,0,17.54,0v-5.7c0-28.66,.02-57.33,0-85.99-.02-31.61-12.53-49-43.24-56.69-27.25-6.82-54.82-6.56-81.83,2.31-11.9,3.91-21.76,11.42-31.38,19.17-.95,.76-1.54,2.53-1.54,3.84-.06,40.66-.02,81.32,0,121.98,0,.15,.14,.3,.57,1.13Z"/><path d="M1602.64,634.23c-4.12-10.91-8-21.13-11.83-31.37-6.4-17.13-12.9-34.23-19.03-51.45-1.53-4.29-3.6-5.75-8.2-5.72-40.14,.21-80.28,.14-120.42,.16-8.49,0-16.99-.18-25.48,.1-1.68,.06-4.29,1.49-4.81,2.91-10.17,27.59-20.09,55.28-30.04,82.95-.21,.58-.1,1.28-.16,2.45,5.8,0,11.43,0,17.06,0,10.16-.01,20.33-.07,30.49-.03,8.36,.03,13.14,4.52,13.23,12.29,.1,7.96-4.25,12.18-13.05,12.22-20.8,.1-41.61,.06-62.41,.05-9.32,0-18.64-.06-27.96-.16-1.95-.02-3.91-.32-6.35-.54,0-7.16-.18-13.97,.19-20.75,.06-1.08,2.52-2.78,3.96-2.89,5.14-.36,10.34-.41,15.48-.08,3.67,.23,5.12-1.22,6.32-4.55,12.16-33.99,24.47-67.92,36.8-101.85,17.05-46.9,34.2-93.77,51.24-140.67,5.1-14.04,9.99-28.15,15.22-42.94-2.11-.11-3.81-.27-5.52-.28-16.66-.02-33.32,.07-49.98-.04-9.32-.06-14.38-5.43-13.52-13.94,.68-6.82,5.21-10.6,13.27-10.63,21.49-.08,42.98,0,64.47-.01,12.16,0,24.32,.05,36.48-.12,3.14-.04,4.55,.95,5.69,4.04,19.21,52.13,38.51,104.22,57.96,156.26,18.69,49.99,37.62,99.89,56.32,149.88,1.31,3.5,2.97,4.9,6.79,4.67,5.81-.35,11.66-.13,17.49-.09,8.67,.06,13.6,4.5,13.79,12.36,.2,7.88-4.36,12.24-13.55,12.3-22.47,.14-44.95,.06-67.42,.07-9.65,0-19.31,.07-28.96,0-7.37-.05-11.73-2.78-13.44-8.15-2.85-8.99,2.43-16.22,12.39-16.37,13.82-.21,27.65-.06,41.48-.06,1.78,0,3.55,0,6.01,0Zm-42.53-113.91c-4.4-12.04-8.69-23.9-13.06-35.73-16.69-45.24-33.46-90.44-49.99-135.74-1.17-3.21-2.56-3.97-5.63-3.93-3.02,.04-4.71,.7-5.85,3.88-16.36,45.68-32.86,91.31-49.35,136.94-4.1,11.35-8.25,22.69-12.58,34.58h136.47Z"/><path d="M1768.79,519.55v114.66c1.94,0,3.69,0,5.45,0,26.16-.02,52.31-.09,78.47-.05,9.27,.01,14.51,5.32,13.93,13.75-.39,5.69-3.41,9.55-9.07,10.26-5.25,.66-10.61,.59-15.93,.6-41.62,.08-83.23,.11-124.85,.13-2.82,0-5.7,.14-8.46-.31-7.78-1.26-11.33-5.6-10.94-12.91,.37-6.91,4.9-11.21,12.6-11.38,9.32-.21,18.66-.08,27.99-.09,1.78,0,3.57,0,5.61,0V344.15c-5.95,0-11.72,0-17.48,0-5.17,0-10.33,.07-15.49-.06-8.4-.21-13.26-4.87-13.16-12.42,.11-7.95,4.49-12.22,13.18-12.24,36.32-.08,72.64-.12,108.96,0,16.65,.05,33.43-.76,49.91,1.03,36.18,3.93,65.96,20.2,85.18,51.8,17.55,28.86,17.5,59.3,1.92,89.05-16.58,31.69-44.77,47.58-78.7,54.96-21.25,4.62-42.78,3-64.22,3.25-14.78,.18-29.57,.03-44.89,.03Zm.21-175.26v150.8c29.58,0,58.74,.86,87.82-.29,20.42-.81,39.31-8.03,55.84-20.66,31.92-24.39,38.4-65.86,14.11-97.2-16.69-21.54-40.04-31.93-66.9-32.75-29.12-.89-58.29-.15-87.44-.11-1.13,0-2.25,.14-3.42,.22Z"/><path d="M2065.63,1002.18v-13.38h585.83c.09,1.58,.23,3.03,.25,4.49,.04,2.8,.01,5.6,.01,8.89h-586.09Z"/><path d="M1146.54,862.62c-6.38,1.76-6.85,1.5-8.2-4.12-.39-1.62-.78-3.24-1.24-4.84-2.13-7.36-4.54-9.21-12.1-9.23-9.99-.03-19.98-.03-29.97-.01-11.47,.02-14.78,2.42-16.76,13.84-.94,5.39-3.32,6.2-8.16,4.67v-24.28c9.75-.79,12.56-9.25,16.01-16.54,5.95-12.57,9.6-25.87,10.28-39.89,.2-4.24-.59-7.55-5.02-9.2-.85-.32-1.34-1.61-1.99-2.46,1.05-.55,2.1-1.56,3.15-1.57,15.99-.16,31.98-.2,47.96-.18,.98,0,1.96,.8,2.94,1.22-.67,.98-1.13,2.48-2.04,2.84-3.89,1.54-5.02,4.41-5.01,8.29,.05,17.16,.13,34.31-.07,51.47-.05,4.3,1.29,6.35,5.68,5.76,3.53-.48,4.7,1.01,4.6,4.48-.19,6.62-.06,13.25-.06,19.76Zm-40.72-87.42c-1.86,11.04-2.84,21.87-5.68,32.19-2.86,10.38-7.57,20.24-11.61,30.68,5.57,0,11.37,0,17.18,0s11.87,0,18.06,0v-62.87h-17.95Z"/><path d="M2468.44,820.16c4.93-5.48,8.92-9.85,12.83-14.29,6.61-7.5,13.17-15.03,19.73-22.56,3.77-4.33,3.06-7.49-2.03-10.22-1.07-.57-1.71-1.93-2.55-2.93,1.14-.43,2.28-1.21,3.42-1.24,6.49-.12,12.99-.1,19.48-.02,1.04,.01,2.07,.54,3.19,.85-.2,.86-.17,1.63-.43,1.74-6.72,2.92-6.49,8.71-6.44,14.69,.14,14.99,.08,29.98-.04,44.97-.03,4.18,.76,7.54,5.17,9.19,.81,.3,1.25,1.63,1.86,2.48-1.03,.54-2.05,1.51-3.1,1.54-6.66,.16-13.32,.16-19.97,.06-.94-.01-1.88-.83-2.81-1.27,.58-1.02,.94-2.67,1.79-2.97,4.32-1.56,4.93-4.81,4.89-8.78-.11-12.65-.04-25.3-.04-38.4-.89,.36-1.59,.43-1.94,.82-9.98,11.17-19.93,22.37-29.88,33.56-5.37,6.04-4.9,8.77,2.2,13.27,.72,.46,1.16,1.37,1.73,2.07-.86,.55-1.71,1.55-2.57,1.57-6.99,.13-13.98,.12-20.97,.02-.79-.01-2.22-.82-2.22-1.26,0-.93,.52-2.43,1.23-2.71,4.43-1.77,4.94-5.32,4.92-9.39-.06-15.98-.07-31.96,.02-47.95,.03-4.63-.5-8.66-5.66-10.43-.69-.24-1.05-1.43-1.57-2.18,.76-.48,1.51-1.37,2.29-1.39,7.32-.15,14.65-.19,21.98-.12,.81,0,1.61,.89,2.41,1.37-.55,.91-.9,2.34-1.69,2.65-4.83,1.89-5.32,5.73-5.28,10.17,.12,11.82,.04,23.63,.04,37.08Z"/><path d="M1867.12,980.25c-1.58,.87-3.15,1.78-4.75,2.62-15.32,7.96-30.29,1.99-36.08-14.38-7.77-21.95,9.9-45.47,32.71-43.54,13.59,1.15,24.33,13.25,26.72,28.85,4.34,28.44-15.13,59.25-50.37,67.26-4.08,.93-4.47-2.04-4.1-4.22,.23-1.33,2.76-2.56,4.49-3.27,12.26-5.07,21.97-13.08,28.64-24.59,1.46-2.52,2.55-5.27,3.81-7.91-.36-.27-.71-.54-1.07-.8Zm4.36-18.97c.04-8.46-1.21-15.91-5.87-22.42-6.26-8.73-17.18-8.6-23.29,.26-5.48,7.94-4.91,22.67,1.17,30.1,4.9,5.99,12.71,8.18,20.27,5.22,7.52-2.94,7.43-2.51,7.72-13.16Z"/><path d="M2077.06,768.94c-1.46,2.1-1.88,3.43-2.69,3.74-4.67,1.8-5.07,5.52-5.05,9.78,.09,18.14,.04,36.29,.04,55.04h31.47c.15-3.05,.42-6.31,.43-9.57,.05-14.16-.03-28.31,.06-42.47,.04-5.52-.12-10.78-6.27-13.34-.32-.14-.48-.81-.59-1.27-.07-.29,.09-.64,.25-1.48h26.52c-1.15,1.69-1.7,3.47-2.62,3.69-4.03,.95-4.82,4.11-4.86,7.23-.18,17.66-.24,35.32,.05,52.97,.03,1.52,2.68,3.35,4.49,4.38,1.3,.74,3.22,.38,5.32,.55v24.99c-2.18,.16-4.14,.31-6.51,.49-.98-3.74-1.8-7.25-2.84-10.69-1.99-6.58-4.72-8.59-11.6-8.6-15.98-.02-31.97,.05-47.95-.05-1.6-.01-3.2-.93-4.8-1.43,1.08-1.17,2.3-2.25,3.2-3.55,1.34-1.93,3.47-4.01,3.5-6.05,.3-17.49,.27-34.98,.19-52.47-.02-3.46-1.12-6.53-5.02-7.78-.86-.28-1.39-1.57-2.08-2.39,.86-.57,1.7-1.62,2.57-1.64,7.78-.13,15.55-.08,24.82-.08Z"/><path d="M1940.6,979.94c-4.27,1.96-7,3.36-9.85,4.49-11.68,4.65-24.24,.27-30.6-10.59-10.6-18.07,.07-43.41,20.38-48.4,14.4-3.54,28.76,4.48,34.17,19.1,7.55,20.37,.72,44.9-16.91,60.74-8.6,7.73-18.7,12.59-29.79,15.52-2.19,.58-4.16,1.06-5.1-2.02-.92-3.02,.92-3.84,3.02-4.65,12.7-4.89,22.71-13.06,29.83-24.66,1.6-2.61,2.8-5.46,4.85-9.52Zm3.75-19.78c-1.77-6.34-2.97-12.92-5.49-18.95-2.37-5.67-7.19-9.23-13.83-8.82-6.8,.42-11.07,4.58-13.13,10.66-3.11,9.15-2.41,18.09,3.31,26.19,4.34,6.15,12.12,8.32,19.59,5.71,7.3-2.56,8.72-4.98,9.55-14.79Z"/><path d="M1206.67,804.4c2.52,1.33,4.56,2.31,6.52,3.45,12.11,7.04,12.61,24.35,.44,31.27-4.88,2.77-10.87,4.55-16.47,4.9-11.93,.75-23.94,.32-35.92,.22-1.19,0-2.38-1.04-3.56-1.6,.96-.98,2.06-1.86,2.86-2.97,1.51-2.09,4.01-4.29,4.05-6.49,.35-17.65,.17-35.3,.29-52.95,.03-3.72-1.91-5.77-4.8-7.49-.85-.5-1.33-1.62-1.98-2.45,.95-.47,1.9-1.36,2.85-1.35,13.81,.05,27.62,.22,41.43,.37,.33,0,.66,.1,.99,.16,9.64,1.76,16.05,6.87,17.21,13.72,1.36,8.03-2.4,14.47-11.45,19.65-.66,.38-1.29,.82-2.45,1.56Zm-28.9,33.19c6.68,0,12.87,.65,18.86-.16,8.42-1.14,12.11-5.98,12.03-13.83-.09-8.09-4.55-14.06-12.41-15.01-6-.73-12.16-.14-18.48-.14v29.14Zm-.07-36.06c6.02,0,11.51,.4,16.92-.1,7.08-.65,12.45-6.19,12.92-12.42,.48-6.49-3.32-12.3-10.05-13.44-6.42-1.08-13.05-.89-19.78-1.28v27.24Z"/><path d="M1981.83,801.5h34.15c0-7.53,.33-15.11-.22-22.63-.15-2.02-3-3.82-4.57-5.75-.75-.93-1.39-1.94-2.08-2.91,.98-.44,1.95-1.25,2.93-1.27,6.83-.12,13.66-.12,20.49,0,.96,.02,1.9,.89,2.85,1.37-.59,.88-1,2.28-1.8,2.57-4.13,1.49-4.73,4.81-4.74,8.45-.04,17.16-.01,34.33-.09,51.49-.02,3.55,1.05,6.08,4.6,7.42,.93,.35,1.48,1.74,2.2,2.65-1.07,.52-2.13,1.47-3.21,1.49-6.66,.14-13.33,.15-19.99,0-1.01-.02-2-1.1-3-1.7,.74-.91,1.31-2.27,2.26-2.64,3.31-1.27,4.6-3.68,4.61-6.97,.04-8.13,.01-16.26,.01-24.71h-34.34c0,8.67-.33,16.98,.22,25.23,.14,2.2,2.95,4.23,4.52,6.34,.71,.95,1.39,1.91,2.09,2.87-1.05,.53-2.09,1.5-3.15,1.53-6.83,.15-13.66,.15-20.49,.04-.92-.01-1.82-.92-2.73-1.41,.59-.86,1-2.22,1.8-2.51,4.3-1.53,5.04-4.93,5.04-8.81,0-16.66,0-33.32-.06-49.98-.02-3.82-.82-7.28-5.2-8.69-.81-.26-1.27-1.63-1.89-2.48,.89-.53,1.78-1.5,2.68-1.52,6.99-.15,13.99-.16,20.99-.07,.99,.01,1.97,.81,2.96,1.24-.65,1-1.09,2.62-1.97,2.91-4.24,1.38-4.81,4.68-4.84,8.33-.05,6.48-.01,12.96-.01,20.14Z"/><path d="M1663.42,805.06c10.08,2.16,13.81,11.2,18.34,19.5,1.67,3.06,2.96,6.43,5.09,9.13,1.96,2.49,4.84,4.25,7.26,6.4,1.12,.99,2.09,2.15,3.12,3.23-.27,.36-.54,.73-.81,1.09-5.78,0-11.58,.23-17.34-.16-1.48-.1-3.36-1.87-4.14-3.36-3.74-7.05-7.06-14.33-10.73-21.42-4.32-8.35-10.93-12.78-21.34-11.15,0,8.76-.27,17.68,.22,26.55,.1,1.86,3.05,3.55,4.65,5.34,.77,.86,1.47,1.79,2.2,2.7-.92,.49-1.82,1.39-2.75,1.4-6.99,.13-13.98,.15-20.97,.04-.9-.01-1.79-.98-2.68-1.51,.54-.9,.87-2.3,1.65-2.62,4.18-1.7,4.8-5.03,4.79-8.95-.01-16.48,.04-32.97,.14-49.45,.03-4.05-1.33-7.02-5.14-8.84-.93-.45-1.42-1.83-2.11-2.78,1.1-.47,2.2-1.31,3.31-1.35,6.65-.19,13.32-.28,19.97-.18,1.22,.02,2.43,1.12,3.64,1.73-.85,1.02-1.72,2.02-2.53,3.07-1.51,1.95-4.12,3.85-4.27,5.91-.53,7.26-.2,14.57-.2,21.76,9.16,2.41,14.45,.31,18.62-7.49,2.67-4.98,4.97-10.16,7.49-15.23,4.19-8.44,14.85-12.87,23.74-9.72,1.11,.39,2.47,1.89,2.57,2.98,.32,3.59,.12,7.23,.12,11.06-3.46,.36-6.22,1.47-8.26-2.63-1.87-3.75-6.69-3.39-9.47,.45-1.53,2.12-2.29,4.79-3.63,7.06-3.41,5.79-6.96,11.49-10.56,17.42Z"/><path d="M1818.71,808.25c0,8.61-.32,16.95,.22,25.22,.14,2.2,2.94,4.22,4.49,6.34,.77,1.05,1.47,2.15,2.2,3.22-1.11,.45-2.21,1.25-3.33,1.28-6.49,.15-12.99,.19-19.48,.07-1.09-.02-2.17-.98-3.25-1.5,.68-.97,1.15-2.45,2.07-2.81,3.57-1.41,4.42-4.13,4.43-7.56,.06-16.99,.23-33.98,.2-50.96,0-3.79-1.19-7.16-5.39-8.69-.9-.33-1.35-1.9-2.01-2.9,.97-.45,1.93-1.28,2.91-1.3,6.99-.11,13.99-.12,20.98,.04,1.08,.02,2.14,1.06,3.21,1.63-.7,.96-1.23,2.53-2.11,2.76-4.1,1.09-4.91,4.21-5,7.65-.16,5.99-.22,12,.08,17.99,.06,1.16,1.83,3.02,3.03,3.21,7.01,1.12,11.64-1.34,15.09-7.88,2.64-5,4.96-10.17,7.5-15.23,4.3-8.6,15.11-13.22,24.09-10.16,1.11,.38,2.49,1.88,2.59,2.96,.33,3.6,.12,7.24,.12,11.11-3.53,.48-6.43,1.49-8.56-2.75-1.68-3.35-5.67-3.36-8.33-.03-2.45,3.06-3.95,6.87-5.98,10.27-2.86,4.79-5.82,9.52-8.99,14.67,11.22,2.9,14.57,13.73,19.82,22.96,3.03,5.33,5.63,11.07,12.35,13.01,.85,.25,1.34,1.78,2.53,3.49-7.43,0-13.73,.18-20-.16-1.25-.07-2.79-1.94-3.51-3.34-3.82-7.38-7.23-14.99-11.17-22.31-4.27-7.94-10.92-11.83-20.8-10.32Z"/><path d="M1394.35,844.38c-6.73,0-12.54,.23-18.32-.16-1.46-.1-3.31-1.86-4.09-3.33-3.8-7.2-7.29-14.56-10.91-21.85-4.2-8.46-10.81-12.31-20.75-10.48,0,8.48-.29,17.1,.21,25.68,.12,2.05,2.96,3.91,4.46,5.93,.69,.92,1.17,1.99,1.75,2.99-.95,.42-1.9,1.19-2.86,1.21-6.65,.09-13.31,.09-19.96-.08-1.07-.03-2.11-1.05-3.16-1.61,.8-.87,1.7-1.67,2.37-2.62,1.42-2,3.86-4.06,3.9-6.13,.35-17.8,.28-35.62,.29-53.43,0-3.7-1.83-6.18-5.24-7.7-.83-.37-1.26-1.66-1.88-2.52,.94-.46,1.86-1.3,2.81-1.32,6.66-.16,13.32-.23,19.97-.12,1.29,.02,2.56,.97,3.83,1.5-.92,.97-1.89,1.89-2.74,2.92-1.3,1.57-3.5,3.17-3.59,4.84-.38,7.76-.17,15.56-.17,23.27,9.23,2.19,13.78,.41,18.04-7.41,2.94-5.4,5.25-11.14,8.23-16.52,4.28-7.71,15.11-11.7,23.39-8.7,1.13,.41,2.23,2.18,2.46,3.48,.41,2.26,.38,4.68,.05,6.96-.19,1.35-1.3,3.65-1.98,3.65-1.87,0-4.42-.45-5.5-1.73-4-4.74-7.5-4.89-10.92,.34-1.54,2.35-2.51,5.06-3.93,7.5-3.04,5.23-6.2,10.39-9.52,15.92,9.55,2.25,13.24,11.19,17.8,19.43,3.66,6.62,6.39,14.12,14.51,17.03,.5,.18,.65,1.31,1.45,3.05Z"/><path d="M1307.04,806.24c-.27,14.51-4.16,27.62-18.51,35.14-14.93,7.82-35.68,3.98-45.04-8.31-6.85-9-7.96-19.61-7.28-30.39,1.95-31.25,28.86-40.69,51.85-31.43,12.14,4.89,16.65,15.52,18.54,27.58,.36,2.29,.3,4.65,.45,7.41Zm-13.66,1.26c-.64-5.43-.75-10.99-2.02-16.27-2.12-8.82-7.11-15.41-16.76-16.95-8.86-1.41-16.53,1.77-20.13,9.56-6.99,15.13-7.29,30.76,.57,45.57,6.86,12.93,24.34,13.09,32.7,1.06,4.86-6.99,5.18-14.9,5.64-22.98Z"/><path d="M2003.33,990.16h-38.62c1.09-3.58,1.29-6.92,2.94-9.21,12.35-17.17,25.08-34.06,37.49-51.19,2.99-4.13,6.59-5.02,11.6-4.2v53.94h15.58c1.15,8.27-.73,10.61-8,10.65-2.3,.01-4.61,0-7.64,0,0,7.05,0,13.65,0,20.25q-.01,7.75-7.66,8.59c-1.63,.18-3.28,.16-5.69,.27v-29.09Zm-.36-10.9v-35.18c-8.89,12.23-16.99,23.38-25.58,35.18h25.58Z"/><path d="M2204.8,830.03c2.88,.95,5.29,1.18,6.94,2.41,4.48,3.35,7.25,3.37,9.84-1.67,3.17-6.18,6.16-12.61,7.98-19.28,2.54-9.27,4.07-18.83,5.73-28.32,.8-4.53,.03-8.67-5.23-10.5-.78-.27-1.17-1.64-1.74-2.5,1.14-.45,2.28-1.28,3.43-1.29,12.49-.08,24.98-.04,37.47-.03,3.16,0,6.34-.09,9.49,.11,.96,.06,1.88,.93,2.81,1.44-.61,.89-1.05,2.36-1.84,2.59-5.2,1.49-5.55,5.31-5.5,9.81,.18,15.98,.21,31.97,.13,47.95-.02,4.37,.76,7.85,5.44,9.52,.95,.34,1.41,2.03,2.76,4.13-9.08,0-16.86,.05-24.64-.08-.84-.01-1.67-1.07-2.5-1.64,.61-.83,1.27-1.62,1.81-2.49,1.54-2.52,4.28-5.04,4.33-7.61,.39-18.14,.24-36.3,.23-54.45,0-.95-.26-1.9-.41-2.93h-16.2c-2.19,12.64-3.71,25.01-6.64,37.04-1.98,8.13-5.28,16.13-9.23,23.53-4.67,8.76-12.15,11.38-21.64,9-1.16-.29-2.56-2.13-2.71-3.39-.38-3.27-.13-6.61-.13-11.33Z"/><path d="M2194.86,768.87v16.88c-3.95,1.41-6.32,.5-7.84-3.16-2.46-5.92-7-8.39-13.49-8-5.78,.35-11.6,.07-17.65,.07v27.41c5.11,0,9.92,.33,14.65-.17,1.78-.19,4-1.97,4.88-3.64,1.83-3.48,4.3-4.22,8.53-3.26,0,6.02,.13,12.13-.06,18.22-.09,2.79-4.89,4.18-6.3,1.52-5.12-9.65-13.76-5.61-21.66-6.75v30.27c7.65,0,15.26,.33,22.82-.11,5.72-.33,7.06-5.5,8.56-9.87,1.05-3.07,2.5-5.27,5.97-4.17,1.22,.39,2.82,2.13,2.83,3.27,.06,4.64-.25,9.32-.82,13.93-.14,1.14-1.77,2.98-2.72,2.99-18.78,.18-37.56,.13-56.35,.13-.3-.47-.6-.94-.91-1.41,1.13-1.07,2.41-2.03,3.34-3.25,1.47-1.94,3.83-4.04,3.86-6.11,.32-17.48,.38-34.97,.03-52.45-.05-2.66-2.5-5.33-4.03-7.88-.66-1.1-1.79-1.91-2.7-2.85,1.39-.54,2.79-1.55,4.18-1.56,15.15-.11,30.3-.07,45.45-.07,2.98,0,5.96,0,9.42,0Z"/><path d="M1025.69,819.72c-2,0-4.01-.17-5.99,.05-3,.33-7.75,0-8.61,1.61-2.25,4.24-3.19,9.34-3.76,14.2-.16,1.32,2.9,2.96,4.39,4.55,.78,.83,1.35,1.85,2.01,2.78-.92,.5-1.83,1.41-2.76,1.42-6.98,.12-13.97,.12-20.96,0-.88-.02-2.06-.82-2.49-1.6-.25-.46,.5-2.06,1.15-2.33,6.42-2.74,8.31-8.87,10.69-14.45,7.5-17.59,14.93-35.22,21.98-52.99,1.63-4.12,3.89-4.81,7.8-4.97,4.17-.17,5.78,1.51,7.06,5.14,6.65,18.81,13.49,37.55,20.35,56.27,1.59,4.33,2.89,8.96,7.92,10.92,.59,.23,1.23,1.84,.97,2.37-.39,.78-1.57,1.62-2.42,1.63-7.65,.15-15.31,.17-22.96,.07-.88-.01-1.75-.98-2.62-1.51,.65-.91,1.16-2.45,1.97-2.63,4.4-.99,4.77-3.84,4.23-7.59-1.86-13-1.87-13.05-17.95-12.93Zm-11.98-6.29h24.49c-3.73-10.84-7.26-21.06-11.3-32.78-4.69,11.66-8.84,21.96-13.19,32.78Z"/><path d="M1434.59,819.67c-1.66,0-3.33,.01-4.99,0-10.1-.08-12,1.53-13.52,11.71-.61,4.14-.02,7.66,4.84,9.01,.87,.24,1.5,1.4,2.24,2.13-.97,.64-1.93,1.8-2.92,1.82-6.98,.16-13.97,.15-20.96,.04-.95-.01-1.88-.87-2.83-1.34,.53-.91,.95-1.91,1.6-2.73,2.51-3.18,5.92-5.93,7.52-9.5,8.62-19.26,16.97-38.65,24.99-58.17,1.76-4.28,4.3-4.46,8.02-4.61,3.95-.16,5.5,1.59,6.73,4.98,7.01,19.36,14.05,38.71,21.49,57.91,1.33,3.44,4.6,6.12,6.94,9.17,.64,.84,1.16,1.77,1.73,2.65-1.01,.56-2.02,1.6-3.04,1.62-7.48,.15-14.97,.17-22.45,.01-1.16-.02-2.3-1.17-3.44-1.79,.84-.83,1.55-2.13,2.56-2.43,4.93-1.47,5.4-4.77,4.17-9.01q-3.33-11.43-15.17-11.51c-1.17,0-2.33,0-3.49,0v.03Zm12.97-6.1c-3.92-11.04-7.59-21.35-11.25-31.66-.4,.07-.79,.13-1.19,.2-4.15,10.34-8.31,20.69-12.64,31.47h25.08Z"/><path d="M2288.11,844.37c1.55-2.05,2.34-3.15,3.2-4.21,2.45-3.02,5.74-5.67,7.26-9.1,8.63-19.44,17.04-38.98,25.03-58.68,1.98-4.88,5.24-3.92,8.76-4.26,3.72-.35,4.69,1.78,5.74,4.7,7.06,19.54,14.11,39.08,21.59,58.45,1.33,3.44,4.68,6.09,7.05,9.14,.7,.91,1.23,1.95,2.54,4.05-10.04,0-18.78,.04-27.53-.07-.74,0-2.14-1.11-2.07-1.43,.22-.95,.83-2.1,1.64-2.57,6.22-3.6,6.31-3.71,4.32-10.44q-3.07-10.38-13.82-10.32c-4.66,.03-9.33,.37-13.96,.04-3.78-.27-5.44,1.38-6.35,4.69-.57,2.08-1.6,4.02-2.2,6.09-1.53,5.27-.45,7.48,4.42,9.96,.88,.45,1.46,1.47,2.18,2.23-.83,.57-1.65,1.63-2.49,1.64-7.94,.13-15.88,.08-25.3,.08Zm52.4-30.73c-3.85-10.87-7.53-21.25-11.21-31.62-.41,.06-.83,.12-1.24,.17-4.1,10.37-8.21,20.74-12.45,31.45h24.9Z"/><path d="M2647.99,844.4c-8.9,0-17.82,.05-26.74-.09-.78-.01-1.77-1.2-2.19-2.07-.16-.33,.89-1.75,1.57-1.92,6.01-1.46,5.76-5.34,4.3-10.04-3.36-10.8-3.29-10.82-14.48-10.79-3.5,0-7.02-.22-10.48,.1-2.76,.26-7.31,.48-7.86,1.94-1.88,4.97-2.56,10.45-3.11,15.79-.08,.8,3.08,1.83,4.61,2.94,.8,.58,1.31,1.57,1.95,2.37-.8,.62-1.6,1.77-2.41,1.78-7.32,.12-14.64,.09-21.97-.03-.76-.01-1.77-.77-2.15-1.46-.24-.43,.29-1.75,.83-2.07,8.04-4.78,9.91-13.53,13.27-21.12,6.92-15.67,13.46-31.52,19.62-47.5,1.94-5.04,5.47-3.62,8.86-4.03,3.29-.41,4.53,1.22,5.57,4.15,6.74,18.95,13.67,37.82,20.58,56.7,1.78,4.86,3.47,9.84,9.19,11.67,.51,.16,.94,.9,1.19,1.46,.17,.39-.05,.95-.16,2.21Zm-40.1-63.91c-4.61,11.73-8.69,22.1-13.01,33.09h24.42c-3.74-10.84-7.33-21.25-11.41-33.09Z"/><path d="M1914.05,819.57c-1.66,0-3.34-.13-4.99,.02-3.39,.33-8.75-.32-9.75,1.45-2.41,4.27-3.08,9.65-3.78,14.68-.17,1.23,2.18,2.85,3.45,4.22,.89,.96,1.91,1.8,2.86,2.69-1.31,.59-2.61,1.66-3.94,1.7-6.15,.2-12.31,.19-18.46,.06-1.05-.02-2.41-.76-2.99-1.61-.31-.46,.56-1.97,1.18-2.78,2.67-3.44,6.34-6.41,8.02-10.26,8.27-18.87,16.28-37.86,23.79-57.04,2.1-5.36,5.66-4.3,9.5-4.66,4.17-.39,4.29,2.67,5.23,5.25,7.27,19.99,14.45,40.01,22,59.9,1.02,2.68,3.96,4.63,5.98,6.94,.67,.77,1.23,1.63,1.85,2.46-1,.59-1.98,1.66-2.99,1.68-7.48,.17-14.97,.19-22.45,.07-1.02-.02-2.01-1.06-3.02-1.63,.78-.94,1.39-2.41,2.37-2.72,4.43-1.4,4.86-4.33,3.9-8.25-3-12.2-2.95-12.21-15.28-12.17-.83,0-1.66,0-2.5,0Zm.86-39c-4.65,11.62-8.83,22.08-13.09,32.75h24.48c-3.78-10.86-7.36-21.16-11.39-32.75Z"/><path d="M1698.85,844.43c1.12-2.03,1.5-3.86,2.42-4.19,5.04-1.82,6.75-6.26,8.55-10.5,7.27-17.15,14.38-34.37,21.56-51.56,.64-1.53,1.31-3.06,1.97-4.58,2.31-5.27,6.43-7.28,11.71-5.32,1.11,.41,2.09,1.99,2.55,3.25,6.79,18.59,13.44,37.22,20.22,55.81,1.9,5.21,2.91,11.17,9.44,13.17,.46,.14,.97,1.49,.77,2.02-.29,.75-1.21,1.78-1.87,1.79-8.15,.15-16.31,.17-24.47,.08-.73,0-2.09-1.09-2.03-1.54,.12-.93,.83-2.35,1.57-2.55,5.47-1.43,5.39-5.29,4.2-9.45-3.93-13.69-.56-10.9-14-11.27-4.49-.13-8.99-.06-13.49,0-1.32,.01-3.57-.11-3.81,.47-1.9,4.65-3.74,9.37-4.93,14.23-.79,3.25,1.44,5.13,4.6,6.02,.77,.21,1.23,1.52,1.84,2.32-.97,.6-1.93,1.7-2.91,1.72-7.47,.15-14.94,.08-23.91,.08Zm51.53-30.84c-3.82-10.93-7.4-21.19-11.48-32.85-4.69,11.61-8.85,21.92-13.26,32.85h24.74Z"/><path d="M1653.22,1008.17c6.45,.66,8.24-3.21,9.9-7.72,5.05-13.75,10.51-27.35,15.45-41.13,1.33-3.69,3.59-4.64,6.98-5.01,3.89-.42,3.6,2.73,4.42,4.82,5.53,14.1,11.03,28.21,16.44,42.35,1.32,3.45,2.64,6.37,7.26,6.01,.86-.07,2.88,2.46,2.72,3.54-1.08,7.24-2.5,14.43-4.1,21.58-.22,.98-2.17,2.38-3.05,2.21-1.22-.24-2.86-1.63-3.14-2.8-1.01-4.36-1.61-8.83-2.2-13.27-.38-2.85-1.8-3.97-4.66-3.94-9.49,.1-18.99,.08-28.48,.03-3.13-.02-4.97,1.25-5.6,4.41-.79,3.91-1.57,7.86-2.81,11.64-.51,1.55-2.19,2.71-3.34,4.05-1.11-1.33-3-2.55-3.21-4.02-1.08-7.36-1.73-14.78-2.59-22.75Zm42.28-.89c-4.57-11.84-8.93-23.11-13.28-34.39-.37,.02-.75,.04-1.12,.06-3.95,11.27-7.91,22.54-12.04,34.32h26.45Z"/><path d="M2395.86,812.46c0,7.35-.04,13.68,.02,20,.03,3.92,1.79,6.58,5.71,7.82,1.01,.32,1.73,1.56,2.58,2.38-1.17,.61-2.34,1.71-3.53,1.74-6.82,.17-13.65,.16-20.48,0-1.2-.03-2.39-1.02-3.58-1.57,.81-.86,1.72-1.65,2.4-2.61,1.42-2.01,3.85-4.09,3.89-6.18,.35-17.97,.24-35.95,.33-53.92,.02-3.45-1.65-5.52-4.55-7.08-.99-.53-1.55-1.85-2.31-2.8,1.09-.51,2.17-1.46,3.26-1.46,11.98,.07,23.97,.26,35.95,.5,1.65,.03,3.3,.44,4.92,.8,10.34,2.34,16.07,8.29,16.66,17.24,.72,10.87-4.29,19.36-14.21,22.68-4.5,1.5-9.42,1.95-14.19,2.39-4.1,.38-8.25,.08-12.89,.08Zm.22-38.16v31.84c5.42,0,10.6,.57,15.61-.13,7.53-1.05,11.91-6.98,11.97-14.84,.07-8.6-3.88-14.5-11.44-15.8-5.16-.89-10.49-.73-16.15-1.07Z"/><path d="M1587.47,985.07c-.03-18.59,13.17-31.63,31.89-31.52,17.19,.1,29.36,12.76,29.34,30.52-.02,18.78-13.18,32.31-31.35,32.23-17.45-.08-29.86-13.05-29.89-31.23Zm48.15,2.44c-.66-7.59-1.72-14.8-6.58-20.83-6.79-8.43-19.2-7.87-24.56,1.02-6.11,10.12-4.26,27.93,3.79,36.58,7.69,8.25,20.41,6.16,24.4-4.27,1.52-3.96,1.99-8.32,2.94-12.49Z"/><path d="M1500.28,774.85c-2.35,0-4.17,.02-5.98,0-8.31-.13-10.83,1.33-12.85,9.37-1.24,4.95-3.91,5.48-8.37,4.37v-19.52h67.54v19.35c-3.84,1.32-5.84,.63-7.73-3.72-4.81-11.09-5.69-10.29-19.87-9.26,0,4.05,0,8.16,0,12.27,.02,14.32,.11,28.64,.05,42.95-.02,4.49,1.5,7.68,5.88,9.38,.95,.37,1.5,1.74,2.23,2.66-1.04,.56-2.08,1.6-3.13,1.62-7.49,.13-14.98,.11-22.47-.02-.91-.02-1.8-.95-2.7-1.46,.58-.86,.98-2.22,1.76-2.5,5.07-1.78,5.87-5.65,5.85-10.36-.07-16.49,.05-32.98,.08-49.46,0-1.64-.16-3.28-.28-5.66Z"/><path d="M1607.54,787.72c-2.01-1.13-4.88-1.77-5.88-3.48-7.25-12.54-24.02-13.37-32.24-1.38-8.27,12.07-7.9,37.24,.79,49,4.53,6.13,10.95,7.92,18.14,7.1,6.15-.7,10.56-4.01,12.26-10.17,1.25-4.53,4.37-4.24,8.59-3.35,0,4.98,.16,10.07-.14,15.13-.06,.95-1.86,2.36-3.04,2.58-11.01,2.03-22.05,3.33-33.19,.63-9.51-2.3-16.36-7.87-19.28-17.08-5.18-16.35-5.71-32.46,5.76-46.87,5.47-6.87,12.87-10.94,21.49-11.26,8.24-.31,16.54,.83,24.8,1.42,2.59,.18,3.67,1.55,3.48,4.34-.27,3.96-.07,7.94-.07,11.92-.49,.49-.98,.99-1.47,1.48Z"/><path d="M1762.82,1014.3v-4.86c3.77-.63,7.36-1.18,10.91-1.85,3.25-.62,4.82-2.69,4.83-5.99,.06-19.14,.17-38.28,.16-57.43,0-4.85-3.2-5.88-7.4-6.02-2.6-.09-6.82,2.44-7.47-1.99-.62-4.22,4.13-3.44,6.61-4.4,6.94-2.67,14.03-4.93,21.8-7.61,.14,2.03,.33,3.58,.33,5.12-.08,22.31-.23,44.61-.27,66.92-.02,10.44,.77,11.19,11.17,12.21,1.79,.18,3.57,.49,5.5,.75v5.15h-46.19Z"/><path d="M2530.64,859.74c11.13-2.87,12.67-11.14,12.59-20.63-.17-18.97-.09-37.95-.02-56.93,.02-4.39-1.08-7.81-5.67-9.4-.82-.29-1.28-1.58-1.91-2.41,1.03-.54,2.05-1.53,3.09-1.55,6.82-.11,13.64-.08,20.46,.09,1.13,.03,2.24,.91,3.36,1.39-.73,.93-1.26,2.26-2.22,2.71-4.32,2.02-4.5,5.86-4.51,9.72-.04,18.97,.02,37.95,0,56.92-.02,12.89-4.57,19.53-16.57,24.42-5.14,2.09-5.58,1.91-8.61-4.32Z"/></svg>